{
  "accessors": [
    {
      "bufferView": 2,
      "componentType": 5126,
      "count": 1052,
      "max": [
        1.0000003576278687,
        1.0,
        1.0
      ],
      "min": [
        -0.9999986886978149,
        -1.0,
        -1.0
      ],
      "type": "VEC3"
    },
    {
      "bufferView": 2,
      "byteOffset": 12624,
      "componentType": 5126,
      "count": 1052,
      "max": [
        1.0,
        1.0,
        1.0
      ],
      "min": [
        -1.0,
        -1.0,
        -1.0
      ],
      "type": "VEC3"
    },
    {
      "bufferView": 1,
      "componentType": 5126,
      "count": 1052,
      "max": [
        0.8568891286849976,
        0.2879679203033447
      ],
      "min": [
        0.602087140083313,
        0.01953125
      ],
      "type": "VEC2"
    },
    {
      "bufferView": 0,
      "componentType": 5125,
      "count": 5952,
      "type": "SCALAR"
    },
    {
      "bufferView": 2,
      "byteOffset": 25248,
      "componentType": 5126,
      "count": 148,
      "max": [
        1.0000038146972656,
        1.0000228881835938,
        1.000000238418579
      ],
      "min": [
        -0.9999980926513672,
        -1.3435935974121094,
        -1.0000004768371582
      ],
      "type": "VEC3"
    },
    {
      "bufferView": 2,
      "byteOffset": 27024,
      "componentType": 5126,
      "count": 148,
      "max": [
        0.9548919796943665,
        1.0,
        0.9548921585083008
      ],
      "min": [
        -0.954892098903656,
        -1.0,
        -0.9548921585083008
      ],
      "type": "VEC3"
    },
    {
      "bufferView": 1,
      "byteOffset": 8416,
      "componentType": 5126,
      "count": 148,
      "max": [
        0.8716945052146912,
        0.7606667280197144
      ],
      "min": [
        0.01953125,
        0.2815850079059601
      ],
      "type": "VEC2"
    },
    {
      "bufferView": 0,
      "byteOffset": 23808,
      "componentType": 5125,
      "count": 720,
      "type": "SCALAR"
    },
    {
      "bufferView": 2,
      "byteOffset": 28800,
      "componentType": 5126,
      "count": 725,
      "max": [
        0.4344940185546875,
        0.4959378242492676,
        0.5000000596046448
      ],
      "min": [
        -0.4344959259033203,
        -0.4999990463256836,
        -0.046498849987983704
      ],
      "type": "VEC3"
    },
    {
      "bufferView": 2,
      "byteOffset": 37500,
      "componentType": 5126,
      "count": 725,
      "max": [
        0.9753540754318237,
        0.994779109954834,
        1.0
      ],
      "min": [
        -0.9753531813621521,
        -1.0,
        -0.9995363354682922
      ],
      "type": "VEC3"
    },
    {
      "bufferView": 1,
      "byteOffset": 9600,
      "componentType": 5126,
      "count": 725,
      "max": [
        0.846746027469635,
        0.8628015518188477
      ],
      "min": [
        0.13049428164958954,
        0.6155226826667786
      ],
      "type": "VEC2"
    },
    {
      "bufferView": 0,
      "byteOffset": 26688,
      "componentType": 5125,
      "count": 4032,
      "type": "SCALAR"
    },
    {
      "bufferView": 2,
      "byteOffset": 46200,
      "componentType": 5126,
      "count": 190,
      "max": [
        0.9999980926513672,
        1.4733037948608398,
        2.8962478637695313
      ],
      "min": [
        -1.0000019073486328,
        -1.0,
        -0.760223388671875
      ],
      "type": "VEC3"
    },
    {
      "bufferView": 2,
      "byteOffset": 48480,
      "componentType": 5126,
      "count": 190,
      "max": [
        0.9999048113822937,
        0.9988439679145813,
        0.9390974044799805
      ],
      "min": [
        -0.9999009966850281,
        -1.0,
        -0.9719849824905396
      ],
      "type": "VEC3"
    },
    {
      "bufferView": 1,
      "byteOffset": 15400,
      "componentType": 5126,
      "count": 190,
      "max": [
        0.33906787633895874,
        0.6025879979133606
      ],
      "min": [
        0.01953125,
        0.10152691602706909
      ],
      "type": "VEC2"
    },
    {
      "bufferView": 0,
      "byteOffset": 42816,
      "componentType": 5125,
      "count": 960,
      "type": "SCALAR"
    },
    {
      "bufferView": 2,
      "byteOffset": 50760,
      "componentType": 5126,
      "count": 8682,
      "max": [
        4.766047954559326,
        355.387939453125,
        94.64093780517578
      ],
      "min": [
        -76.58407592773438,
        -5.004189491271973,
        -139.892822265625
      ],
      "type": "VEC3"
    },
    {
      "bufferView": 2,
      "byteOffset": 154944,
      "componentType": 5126,
      "count": 8682,
      "max": [
        1.0,
        0.9999998807907104,
        1.0
      ],
      "min": [
        -1.0,
        -1.0,
        -1.0
      ],
      "type": "VEC3"
    },
    {
      "bufferView": 1,
      "byteOffset": 16920,
      "componentType": 5126,
      "count": 8682,
      "max": [
        0.9658924341201782,
        0.98046875
      ],
      "min": [
        0.01953125,
        0.01953125
      ],
      "type": "VEC2"
    },
    {
      "bufferView": 0,
      "byteOffset": 46656,
      "componentType": 5125,
      "count": 43344,
      "type": "SCALAR"
    },
    {
      "bufferView": 2,
      "byteOffset": 259128,
      "componentType": 5126,
      "count": 148,
      "max": [
        1.0000038146972656,
        1.0000228881835938,
        1.000000238418579
      ],
      "min": [
        -0.9999980926513672,
        -1.3435935974121094,
        -1.0000004768371582
      ],
      "type": "VEC3"
    },
    {
      "bufferView": 2,
      "byteOffset": 260904,
      "componentType": 5126,
      "count": 148,
      "max": [
        0.9548919796943665,
        1.0,
        0.9548921585083008
      ],
      "min": [
        -0.954892098903656,
        -1.0,
        -0.9548921585083008
      ],
      "type": "VEC3"
    },
    {
      "bufferView": 1,
      "byteOffset": 86376,
      "componentType": 5126,
      "count": 148,
      "max": [
        0.8716945052146912,
        0.7606667280197144
      ],
      "min": [
        0.01953125,
        0.2815850079059601
      ],
      "type": "VEC2"
    },
    {
      "bufferView": 0,
      "byteOffset": 220032,
      "componentType": 5125,
      "count": 720,
      "type": "SCALAR"
    },
    {
      "bufferView": 2,
      "byteOffset": 262680,
      "componentType": 5126,
      "count": 725,
      "max": [
        0.4344940185546875,
        0.4959378242492676,
        0.5000000596046448
      ],
      "min": [
        -0.4344959259033203,
        -0.4999990463256836,
        -0.046498849987983704
      ],
      "type": "VEC3"
    },
    {
      "bufferView": 2,
      "byteOffset": 271380,
      "componentType": 5126,
      "count": 725,
      "max": [
        0.9753540754318237,
        0.994779109954834,
        1.0
      ],
      "min": [
        -0.9753531813621521,
        -1.0,
        -0.9995363354682922
      ],
      "type": "VEC3"
    },
    {
      "bufferView": 1,
      "byteOffset": 87560,
      "componentType": 5126,
      "count": 725,
      "max": [
        0.846746027469635,
        0.8628015518188477
      ],
      "min": [
        0.13049428164958954,
        0.6155226826667786
      ],
      "type": "VEC2"
    },
    {
      "bufferView": 0,
      "byteOffset": 222912,
      "componentType": 5125,
      "count": 4032,
      "type": "SCALAR"
    },
    {
      "bufferView": 2,
      "byteOffset": 280080,
      "componentType": 5126,
      "count": 1052,
      "max": [
        1.0000003576278687,
        1.0,
        1.0
      ],
      "min": [
        -0.9999986886978149,
        -1.0,
        -1.0
      ],
      "type": "VEC3"
    },
    {
      "bufferView": 2,
      "byteOffset": 292704,
      "componentType": 5126,
      "count": 1052,
      "max": [
        1.0,
        1.0,
        1.0
      ],
      "min": [
        -1.0,
        -1.0,
        -1.0
      ],
      "type": "VEC3"
    },
    {
      "bufferView": 1,
      "byteOffset": 93360,
      "componentType": 5126,
      "count": 1052,
      "max": [
        0.8568891286849976,
        0.2879679203033447
      ],
      "min": [
        0.602087140083313,
        0.01953125
      ],
      "type": "VEC2"
    },
    {
      "bufferView": 0,
      "byteOffset": 239040,
      "componentType": 5125,
      "count": 5952,
      "type": "SCALAR"
    }
  ],
  "asset": {
    "extras": {
      "author": "Xuan Tien (https://sketchfab.com/xuan.tien2111hy)",
      "license": "CC-BY-4.0 (http://creativecommons.org/licenses/by/4.0/)",
      "source": "https://sketchfab.com/3d-models/giraffe-melman-87c19019a60f4e319cdc127d30b24d9a",
      "title": "Giraffe_melman"
    },
    "generator": "Sketchfab-15.30.0",
    "version": "2.0"
  },
  "bufferViews": [
    {
      "buffer": 0,
      "byteLength": 262848,
      "name": "floatBufferViews",
      "target": 34963
    },
    {
      "buffer": 0,
      "byteLength": 101776,
      "byteOffset": 262848,
      "byteStride": 8,
      "name": "floatBufferViews",
      "target": 34962
    },
    {
      "buffer": 0,
      "byteLength": 305328,
      "byteOffset": 364624,
      "byteStride": 12,
      "name": "floatBufferViews",
      "target": 34962
    }
  ],
  "buffers": [
    {
      "byteLength": 669952,
      "uri": "scene.bin"
    }
  ],
  "images": [
    {
      "uri": "textures/giraffe_melman01_baseColor.png"
    }
  ],
  "materials": [
    {
      "doubleSided": true,
      "name": "giraffe_melman01",
      "pbrMetallicRoughness": {
        "baseColorTexture": {
          "index": 0
        },
        "metallicFactor": 0.0,
        "roughnessFactor": 0.6
      }
    }
  ],
  "meshes": [
    {
      "name": "giraffe_melman1_giraffe_melman01_0",
      "primitives": [
        {
          "attributes": {
            "NORMAL": 1,
            "POSITION": 0,
            "TEXCOORD_0": 2
          },
          "indices": 3,
          "material": 0,
          "mode": 4
        }
      ]
    },
    {
      "name": "giraffe_melman2_giraffe_melman01_0",
      "primitives": [
        {
          "attributes": {
            "NORMAL": 5,
            "POSITION": 4,
            "TEXCOORD_0": 6
          },
          "indices": 7,
          "material": 0,
          "mode": 4
        }
      ]
    },
    {
      "name": "giraffe_melman3_giraffe_melman01_0",
      "primitives": [
        {
          "attributes": {
            "NORMAL": 9,
            "POSITION": 8,
            "TEXCOORD_0": 10
          },
          "indices": 11,
          "material": 0,
          "mode": 4
        }
      ]
    },
    {
      "name": "giraffe_melman4_giraffe_melman01_0",
      "primitives": [
        {
          "attributes": {
            "NORMAL": 13,
            "POSITION": 12,
            "TEXCOORD_0": 14
          },
          "indices": 15,
          "material": 0,
          "mode": 4
        }
      ]
    },
    {
      "name": "giraffe_melman5_giraffe_melman01_0",
      "primitives": [
        {
          "attributes": {
            "NORMAL": 17,
            "POSITION": 16,
            "TEXCOORD_0": 18
          },
          "indices": 19,
          "material": 0,
          "mode": 4
        }
      ]
    },
    {
      "name": "giraffe_melman6_giraffe_melman01_0",
      "primitives": [
        {
          "attributes": {
            "NORMAL": 21,
            "POSITION": 20,
            "TEXCOORD_0": 22
          },
          "indices": 23,
          "material": 0,
          "mode": 4
        }
      ]
    },
    {
      "name": "giraffe_melman7_giraffe_melman01_0",
      "primitives": [
        {
          "attributes": {
            "NORMAL": 25,
            "POSITION": 24,
            "TEXCOORD_0": 26
          },
          "indices": 27,
          "material": 0,
          "mode": 4
        }
      ]
    },
    {
      "name": "giraffe_melman8_giraffe_melman01_0",
      "primitives": [
        {
          "attributes": {
            "NORMAL": 29,
            "POSITION": 28,
            "TEXCOORD_0": 30
          },
          "indices": 31,
          "material": 0,
          "mode": 4
        }
      ]
    }
  ],
  "nodes": [
    {
      "children": [
        1
      ],
      "matrix": [
        1.0,
        0.0,
        0.0,
        0.0,
        0.0,
        2.220446049250313e-16,
        -1.0,
        0.0,
        0.0,
        1.0,
        2.220446049250313e-16,
        0.0,
        0.0,
        0.0,
        0.0,
        1.0
      ],
      "name": "Sketchfab_model"
    },
    {
      "children": [
        2
      ],
      "matrix": [
        0.009999999776482582,
        0.0,
        0.0,
        0.0,
        0.0,
        0.0,
        0.009999999776482582,
        0.0,
        0.0,
        -0.009999999776482582,
        0.0,
        0.0,
        0.0,
        0.0,
        0.0,
        1.0
      ],
      "name": "e4402d94f77d40dda233510b178515af.fbx"
    },
    {
      "children": [
        3
      ],
      "name": "RootNode"
    },
    {
      "children": [
        4,
        6,
        8,
        10,
        12,
        14,
        16,
        18
      ],
      "matrix": [
        1.0,
        0.0,
        0.0,
        0.0,
        0.0,
        1.0,
        0.0,
        0.0,
        0.0,
        0.0,
        1.0,
        0.0,
        35.082862854003906,
        0.0,
        24.915695190429688,
        1.0
      ],
      "name": "giraffe_melman"
    },
    {
      "children": [
        5
      ],
      "matrix": [
        4.122092896283463,
        0.0,
        5.657592257701982,
        0.0,
        -5.657592257701982,
        0.0,
        4.122092896283463,
        0.0,
        0.0,
        -7.0,
        0.0,
        0.0,
        -57.37053680419922,
        331.6870422363281,
        34.31376266479492,
        1.0
      ],
      "name": "giraffe_melman1"
    },
    {
      "mesh": 0,
      "name": "giraffe_melman1_giraffe_melman01_0"
    },
    {
      "children": [
        7
      ],
      "matrix": [
        5.375551509188443,
        -1.9565407421093557,
        0.0,
        0.0,
        2.166892674159322,
        5.953488692634378,
        0.0,
        0.0,
        0.0,
        0.0,
        5.7205424308776855,
        0.0,
        -22.51227569580078,
        358.71441650390625,
        3.0566515922546387,
        1.0
      ],
      "name": "giraffe_melman2"
    },
    {
      "mesh": 1,
      "name": "giraffe_melman2_giraffe_melman01_0"
    },
    {
      "children": [
        9
      ],
      "matrix": [
        19.08740271345268,
        -19.087402713452683,
        0.0,
        0.0,
        24.697610854061935,
        24.69761085406193,
        0.0,
        0.0,
        0.0,
        0.0,
        20.59659767150879,
        0.0,
        -7.549644470214844,
        346.9844055175781,
        -4.289796829223633,
        1.0
      ],
      "name": "giraffe_melman3"
    },
    {
      "mesh": 2,
      "name": "giraffe_melman3_giraffe_melman01_0"
    },
    {
      "children": [
        11
      ],
      "matrix": [
        2.0382184982299805,
        0.0,
        0.0,
        0.0,
        0.0,
        8.57541275024414,
        0.0,
        0.0,
        0.0,
        0.0,
        2.0382184982299805,
        0.0,
        -36.14998245239258,
        86.25569152832031,
        -142.92282104492188,
        1.0
      ],
      "name": "giraffe_melman4"
    },
    {
      "mesh": 3,
      "name": "giraffe_melman4_giraffe_melman01_0"
    },
    {
      "children": [
        13
      ],
      "name": "giraffe_melman5"
    },
    {
      "mesh": 4,
      "name": "giraffe_melman5_giraffe_melman01_0"
    },
    {
      "children": [
        15
      ],
      "matrix": [
        5.375551509188443,
        1.9565407421093557,
        0.0,
        0.0,
        -2.166892674159322,
        5.953488692634378,
        0.0,
        0.0,
        0.0,
        0.0,
        5.7205424308776855,
        0.0,
        -48.352699279785156,
        358.71441650390625,
        3.0566515922546387,
        1.0
      ],
      "name": "giraffe_melman6"
    },
    {
      "mesh": 5,
      "name": "giraffe_melman6_giraffe_melman01_0"
    },
    {
      "children": [
        17
      ],
      "matrix": [
        19.08740271345268,
        19.087402713452683,
        0.0,
        0.0,
        -24.697610854061935,
        24.69761085406193,
        0.0,
        0.0,
        0.0,
        0.0,
        20.59659767150879,
        0.0,
        -62.61604309082031,
        346.9844055175781,
        -4.289796829223633,
        1.0
      ],
      "name": "giraffe_melman7"
    },
    {
      "mesh": 6,
      "name": "giraffe_melman7_giraffe_melman01_0"
    },
    {
      "children": [
        19
      ],
      "matrix": [
        4.122103733736839,
        3.885780586188048e-16,
        -5.6575843615727734,
        0.0,
        5.6575843615727734,
        -1.5543122344752192e-15,
        4.12210373373684,
        0.0,
        -3.885780586188048e-16,
        -7.0,
        -1.5543122344752192e-15,
        0.0,
        -14.022051811218262,
        331.6870422363281,
        34.31376266479492,
        1.0
      ],
      "name": "giraffe_melman8"
    },
    {
      "mesh": 7,
      "name": "giraffe_melman8_giraffe_melman01_0"
    }
  ],
  "samplers": [
    {
      "magFilter": 9729,
      "minFilter": 9987,
      "wrapS": 10497,
      "wrapT": 10497
    }
  ],
  "scene": 0,
  "scenes": [
    {
      "name": "Sketchfab_Scene",
      "nodes": [
        0
      ]
    }
  ],
  "textures": [
    {
      "sampler": 0,
      "source": 0
    }
  ]
}
